<?xml version="1.0" encoding="UTF-8" standalone="no"?>
<svg width="1014px" height="1030px" viewBox="0 0 1014 1030" version="1.1" xmlns="http://www.w3.org/2000/svg" xmlns:xlink="http://www.w3.org/1999/xlink" xmlns:sketch="http://www.bohemiancoding.com/sketch/ns">
    <title>code</title>
    <description>Created with Sketch (http://www.bohemiancoding.com/sketch)</description>
    <defs></defs>
    <g id="Code" stroke="none" stroke-width="1" fill="none" fill-rule="evenodd">
        <g id="Group" transform="translate(7.000000, 8.000000)">
            <path d="M473.259864,20.6588322 C488.028034,13.1420605 511.964896,13.1384618 526.740136,20.6588322 L972.259864,247.421545 C987.028034,254.938316 999,274.45528 999,291.028099 L999,739.002329 C999,755.568793 987.035104,775.088514 972.259864,782.608884 L526.740136,1009.3716 C511.971966,1016.88837 488.035104,1016.89197 473.259864,1009.3716 L27.7401356,782.608884 C12.9719665,775.092112 1,755.575148 1,739.002329 L1,291.028099 C1,274.461636 12.9648962,254.941915 27.7401356,247.421545 L473.259864,20.6588322 Z M473.259864,20.6588322" id="Path copy" fill="#49BA6F"></path>
            <path d="M473.250453,5.6363922 C488.02382,-1.86798621 511.97354,-1.86932729 526.749547,5.6363922 L973.250453,232.443985 C988.02382,239.948363 1000,259.45528 1000,276.028099 L1000,724.002329 C1000,740.568793 988.02646,760.080725 973.250453,767.586444 L526.749547,994.394036 C511.97618,1001.89841 488.02646,1001.89976 473.250453,994.394036 L26.7495469,767.586444 C11.9761801,760.082066 3.1951307e-13,740.575148 3.08805752e-13,724.002329 L1.93798796e-14,276.028099 C8.67666764e-15,259.461636 11.97354,239.949704 26.7495469,232.443985 L473.250453,5.6363922 Z M473.250453,5.6363922" id="Path" fill="#F7F7F7"></path>
        </g>
        <g id="Group" transform="translate(186.500000, 291.000000)" fill="#64DB83">
            <path d="M557.137683,0 C546.090097,0 537.134259,8.95933861 537.134259,19.9980582 L537.134259,34.6153846 L606.294961,34.6153846 L606.294961,415.384615 L537.134259,415.384615 L537.134259,430.001942 C537.134259,441.046564 546.083911,450 557.137683,450 L620.007379,450 C631.054965,450 640.010802,441.036418 640.010802,429.992005 L640.010802,20.0079953 C640.010802,8.9578846 631.061151,0 620.007379,0 L557.137683,0 Z M557.137683,0" id="Rectangle 1"></path>
            <path d="M20.0034239,0 C8.95583794,0 2.1727224e-08,8.95933861 2.1727224e-08,19.9980582 L2.1727224e-08,34.6153846 L69.1607013,34.6153846 L69.1607013,415.384615 L-2.17272302e-08,415.384615 L-3.37735634e-09,430.001942 C1.04875205e-08,441.046564 8.94965196,450 20.0034239,450 L82.8731194,450 C93.9207053,450 102.876543,441.036418 102.876543,429.992005 L102.876543,20.0079953 C102.876543,8.9578846 93.9268913,0 82.8731194,0 L20.0034239,0 Z M20.0034239,0" id="Rectangle 1 copy" transform="translate(51.438272, 225.000000) rotate(-180.000000) translate(-51.438272, -225.000000) "></path>
            <path d="M138.487654,173.076923 L138.487654,201.758242 L380.841049,201.758242 L380.841049,173.076923 L138.487654,173.076923 Z M138.487654,173.076923" id="Rectangle 3"></path>
            <path d="M138.487654,244.285714 L138.487654,272.967033 L380.841049,272.967033 L380.841049,244.285714 L138.487654,244.285714 Z M138.487654,244.285714" id="Rectangle 3 copy"></path>
            <path d="M481.739198,147.362637 L507.458333,147.362637 L507.458333,212.637363 L572.74537,212.637363 L572.74537,238.351648 L507.458333,238.351648 L507.458333,303.626374 L481.739198,303.626374 L481.739198,238.351648 L416.45216,238.351648 L416.45216,212.637363 L481.739198,212.637363 Z M481.739198,147.362637" id="Rectangle 5"></path>
            <path d="M85.5655864,181.978022 C76.0050085,181.978022 68.2546296,174.229105 68.2546296,164.67033 C68.2546296,155.111555 76.0050085,147.362637 85.5655864,147.362637 C95.1261643,147.362637 102.876543,155.111555 102.876543,164.67033 C102.876543,174.229105 95.1261643,181.978022 85.5655864,181.978022 Z M86.554784,303.626374 C76.994206,303.626374 69.2438272,295.877456 69.2438272,286.318681 C69.2438272,276.759906 76.994206,269.010989 86.554784,269.010989 C96.1153619,269.010989 103.865741,276.759906 103.865741,286.318681 C103.865741,295.877456 96.1153619,303.626374 86.554784,303.626374 Z M86.554784,303.626374" id="Oval 1"></path>
        </g>
    </g>
</svg>