<?xml version="1.0" encoding="UTF-8" standalone="no"?>
<svg width="1018px" height="1028px" viewBox="0 0 1018 1028" version="1.1" xmlns="http://www.w3.org/2000/svg" xmlns:xlink="http://www.w3.org/1999/xlink" xmlns:sketch="http://www.bohemiancoding.com/sketch/ns">
    <title>design</title>
    <description>Created with Sketch (http://www.bohemiancoding.com/sketch)</description>
    <defs></defs>
    <g id="Design" stroke="none" stroke-width="1" fill="none" fill-rule="evenodd">
        <path d="M482.259864,27.6588322 C497.028034,20.1420605 520.964896,20.1384618 535.740136,27.6588322 L981.259864,254.421545 C996.028034,261.938316 1008,281.45528 1008,298.028099 L1008,746.002329 C1008,762.568793 996.035104,782.088514 981.259864,789.608884 L535.740136,1016.3716 C520.971966,1023.88837 497.035104,1023.89197 482.259864,1016.3716 L36.7401356,789.608884 C21.9719665,782.092112 10,762.575148 10,746.002329 L10,298.028099 C10,281.461636 21.9648962,261.941915 36.7401356,254.421545 L482.259864,27.6588322 Z M482.259864,27.6588322" id="Path copy" fill="#49BA6F"></path>
        <path d="M482.250453,12.6363922 C497.02382,5.13201379 520.97354,5.13067271 535.749547,12.6363922 L982.250453,239.443985 C997.02382,246.948363 1009,266.45528 1009,283.028099 L1009,731.002329 C1009,747.568793 997.02646,767.080725 982.250453,774.586444 L535.749547,1001.39404 C520.97618,1008.89841 497.02646,1008.89976 482.250453,1001.39404 L35.7495469,774.586444 C20.9761801,767.082066 9,747.575148 9,731.002329 L9,283.028099 C9,266.461636 20.97354,246.949704 35.7495469,239.443985 L482.250453,12.6363922 Z M482.250453,12.6363922" id="Path" fill="#F7F7F7"></path>
        <g id="Group" transform="translate(279.000000, 219.515214)">
            <path d="M14.9946892,0 C6.71335102,0 0,6.70652981 0,14.9924796 L0,560.00752 C0,568.287638 6.72470631,575 14.9946892,575 L445.005311,575 C453.286649,575 460,568.29347 460,560.00752 L460,14.9924796 C460,6.71236177 453.275294,0 445.005311,0 L14.9946892,0 Z M14.9946892,0" id="Border" stroke="#63D881" stroke-width="15"></path>
            <path d="M32,42 L32,77 L67,77 L67,42 L32,42 Z M32,42" id="Box 1" fill="#63D881"></path>
            <path d="M98,42 L98,77 L133,77 L133,42 L98,42 Z M98,42" id="Box 2" fill="#63D881"></path>
            <path d="M164,42 L164,77 L199,77 L199,42 L164,42 Z M164,42" id="Box 3" fill="#63D881"></path>
            <path d="M230,42 L230,77 L427,77 L427,42 L230,42 Z M230,42" id="Top Righ Rect" fill="#63D881"></path>
            <path d="M32.000002,112 L32.000002,153 C31.9999975,175 32.000002,197 32.000002,197 L428,197 L428,112 L32.000002,112 Z M32.000002,112" id="Mid Big" fill="#63D881"></path>
            <path d="M229.496183,232 L428,232 L428,264 L230.503817,264 L32,264 L32,232 L229.496183,232 Z M229.496183,232" id="Mid Left" fill="#63D881"></path>
            <path d="M33,299 L33,331 L198,331 L198,299 L33,299 Z M33,299" id="Mid Left copy" fill="#63D881"></path>
            <path d="M32,366 L32,398 L197,398 L197,366 L32,366 Z M32,366" id="Mid Left copy 2" fill="#63D881"></path>
            <path d="M32,433 L32,465 L197,465 L197,433 L32,433 Z M32,433" id="Mid Left copy 3" fill="#63D881"></path>
            <path d="M230,299 L427,299 L427,373.428884 L376.331276,350.809739 L376.331276,364.266698 L411.731824,380.014204 L376.331276,397.193302 L376.331276,410.93658 L427,386.742684 L427,465 L230,465 L230,386.742684 L280.668724,410.93658 L280.668724,397.193302 L245.133059,380.014204 L280.668724,364.266698 L280.668724,350.809739 L230,373.428884 Z M302.962963,441 L316.069273,441 L354.037037,320.46 L340.930727,320.46 Z M302.962963,441" id="Rectangle 12" fill="#63D881"></path>
            <path d="M229.496183,500 L428,500 L428,532 L230.503817,532 L32,532 L32,500 L229.496183,500 Z M229.496183,500" id="Mid Left copy" fill="#63D881"></path>
        </g>
    </g>
</svg>