<?xml version="1.0" encoding="UTF-8" standalone="no"?>
<svg width="848px" height="608px" viewBox="0 0 848 608" version="1.1" xmlns="http://www.w3.org/2000/svg" xmlns:xlink="http://www.w3.org/1999/xlink" xmlns:sketch="http://www.bohemiancoding.com/sketch/ns">
    <title>Display</title>
    <description>Created with Sketch (http://www.bohemiancoding.com/sketch)</description>
    <defs></defs>
    <g id="Display" stroke="none" stroke-width="1" fill="none" fill-rule="evenodd">
        <path d="M414,607 C579.685433,607 714,606.10457 714,605 C714,603.89543 579.685433,603 414,603 C248.314567,603 114,603.89543 114,605 C114,606.10457 248.314567,607 414,607 Z M414,607" id="Shadow" fill-opacity="0.1983858" fill="#767676"></path>
        <path d="M38.9996192,0 C25.1927108,0 14,11.2026235 14,25.0005973 L14,470.999403 C14,484.806851 25.1944224,496 38.9996192,496 L789.000381,496 C802.807289,496 814,484.797377 814,470.999403 L814,25.0005973 C814,11.1931487 802.805578,0 789.000381,0 L38.9996192,0 Z M38.9996192,0" id="Screen" fill="#373D3F"></path>
        <path d="M460.996094,0 C460.996094,0 564.999992,78.0000071 638,226 C711,374 782,570 813,475 C814,420 813.99677,24.9987102 813.99677,24.9987102 C813.998554,11.1923038 802.803033,0 789.001592,0 L460.996094,0 Z M460.996094,0" id="Screen Light" fill="#3E4447"></path>
        <path d="M14.0000076,432.021898 L14.0000076,432.021898 C14.0000076,432.021898 14.0000076,443.219489 14.0000076,457.022102 L14.0000076,475.999795 C14.0000076,489.807027 25.1944299,501 38.9996266,501 L789.000383,501 C802.807291,501 814.000002,489.812403 814.000002,476.002909 L814.000002,432.021898 C813.999995,418.472628 814.000002,432.021898 814.000002,432.021898 C814.000002,432.021898 802.805579,432.021898 789.000383,432.021898 L14.0000076,432.021898 Z M14.0000076,432.021898" id="Bottom Panel" fill="#E9E9E9"></path>
        <path d="M373.649902,501.111111 L364.616699,593 L463.383301,593 L453.915932,501.111111 L373.649902,501.111111 Z M373.649902,501.111111" id="Stand" fill="#F2F2F2"></path>
        <path d="M374.806452,501.111111 L373.5,506.111111 L454.5,506.111111 L453.473633,501.111111 L374.806452,501.111111 Z M374.806452,501.111111" id="Stand copy" fill="#E3E3E3"></path>
        <path d="M504,593 L324,593 L324,594.497101 C324,599.193122 327.801086,603 332.500418,603 L495.499582,603 C500.194233,603 504,599.18946 504,597.230769 C504,597.230769 504,600.114313 504,597.230769 C503.999998,595.115385 504,593 504,593 L504,593 Z M504,593" id="Bottom Stand" fill="#EDEDED" transform="translate(414.000000, 598.000000) scale(-1, -1) translate(-414.000000, -598.000000) "></path>
        <path d="M422.04488,464.940208 C422.08368,469.478222 425.955386,470.987885 426,471.008569 C425.965518,471.113686 425.380179,473.160652 423.95857,475.274943 C422.729233,477.103004 421.456779,478.922393 419.448449,478.960362 C417.473221,478.998096 416.839066,477.768862 414.582567,477.768862 C412.326068,477.768862 411.6203,478.922276 409.75393,478.998096 C407.815832,479.071221 406.339707,477.024137 405.101793,475.201818 C402.568398,471.478606 400.634732,464.677532 403.234041,460.086784 C404.522211,457.806263 406.828966,456.363514 409.3307,456.325662 C411.234258,456.290448 413.031778,457.630893 414.193704,457.630893 C415.358624,457.630893 417.541956,456.018925 419.837197,456.255467 C420.798331,456.296307 423.495273,456.649568 425.226649,459.228271 C425.088949,459.318798 422.007635,461.140883 422.04488,464.940208 Z M418.333728,453.79067 C417.303917,455.058049 415.615429,456.045058 413.961307,455.913632 C413.737603,454.190688 414.572493,452.39626 415.526431,451.271966 C416.589457,450.004587 418.385538,449.061406 419.867247,449 C420.056642,450.7581 419.36233,452.520419 418.333728,453.79067 Z M418.333728,453.79067" id="Shape" fill="#949595"></path>
        <path d="M32,35 L32,420 L792,420 L792,35 L32,35 Z M32,35" id="Inner Screen Border" stroke="#232323" stroke-width="2"></path>
        <path d="M412.5,24 C415.537566,24 418,21.5375663 418,18.5 C418,15.4624337 415.537566,13 412.5,13 C409.462434,13 407,15.4624337 407,18.5 C407,21.5375663 409.462434,24 412.5,24 Z M412.5,24" id="Camera" fill="#2F3136"></path>
    </g>
</svg>