<?xml version="1.0" encoding="UTF-8" standalone="no"?>
<svg width="1010px" height="1030px" viewBox="0 0 1010 1030" version="1.1" xmlns="http://www.w3.org/2000/svg" xmlns:xlink="http://www.w3.org/1999/xlink" xmlns:sketch="http://www.bohemiancoding.com/sketch/ns">
    <title>rspnsv</title>
    <description>Created with Sketch (http://www.bohemiancoding.com/sketch)</description>
    <defs></defs>
    <g id="Rspnsv" stroke="none" stroke-width="1" fill="none" fill-rule="evenodd">
        <g id="Group" transform="translate(7.000000, 6.000000)">
            <path d="M473.259864,20.6588322 C488.028034,13.1420605 511.964896,13.1384618 526.740136,20.6588322 L972.259864,247.421545 C987.028034,254.938316 999,274.45528 999,291.028099 L999,739.002329 C999,755.568793 987.035104,775.088514 972.259864,782.608884 L526.740136,1009.3716 C511.971966,1016.88837 488.035104,1016.89197 473.259864,1009.3716 L27.7401356,782.608884 C12.9719665,775.092112 1,755.575148 1,739.002329 L1,291.028099 C1,274.461636 12.9648962,254.941915 27.7401356,247.421545 L473.259864,20.6588322 Z M473.259864,20.6588322" id="Path copy" fill="#49BA6F"></path>
            <path d="M473.250453,5.6363922 C488.02382,-1.86798621 511.97354,-1.86932729 526.749547,5.6363922 L973.250453,232.443985 C988.02382,239.948363 1000,259.45528 1000,276.028099 L1000,724.002329 C1000,740.568793 988.02646,760.080725 973.250453,767.586444 L526.749547,994.394036 C511.97618,1001.89841 488.02646,1001.89976 473.250453,994.394036 L26.7495469,767.586444 C11.9761801,760.082066 3.1951307e-13,740.575148 3.08805752e-13,724.002329 L1.93798796e-14,276.028099 C8.67666764e-15,259.461636 11.97354,239.949704 26.7495469,232.443985 L473.250453,5.6363922 Z M473.250453,5.6363922" id="Path" fill="#F7F7F7"></path>
        </g>
        <g id="iPad" transform="translate(269.000000, 188.000000)" fill="#64DB83">
            <path d="M88.4216567,44.1810099 L88.4216567,303.901103 L147.413253,303.901103 C161.213855,303.901103 172.410518,315.093742 172.410518,328.900562 L172.410518,542.998863 L458.421657,542.998863 L458.421657,44.1810099 Z M101.349401,0 L445.493913,0 C462.067398,0 475.5,13.4344945 475.5,30.0067834 L475.5,567.862044 C475.5,584.436665 462.065817,597.868827 445.493913,597.868827 L172.410518,597.868827 L172.410518,627.000541 C172.410518,640.812381 161.218861,652 147.413253,652 L25.4972653,652 C11.6966634,652 0.5,640.807361 0.5,627.000541 L0.5,328.900562 C0.5,315.088722 11.6916569,303.901103 25.4972653,303.901103 L71.3433135,303.901103 L71.3433135,30.0067834 C71.3433135,13.4321626 84.7774964,0 101.349401,0 Z M274.488972,585.754679 C283.330901,585.754679 290.4987,578.576268 290.4987,569.721248 C290.4987,560.866228 283.330901,553.687817 274.488972,553.687817 C265.647043,553.687817 258.479244,560.866228 258.479244,569.721248 C258.479244,578.576268 265.647043,585.754679 274.488972,585.754679 Z M15.4618485,349.118073 C13.8013551,349.118073 12.4552592,350.452381 12.4552592,352.119963 L12.4552592,594.116184 C12.4552592,595.774081 13.8028215,597.118073 15.4618485,597.118073 L157.44867,597.118073 C159.109163,597.118073 160.455259,595.783765 160.455259,594.116184 L160.455259,352.119963 C160.455259,350.462065 159.107697,349.118073 157.44867,349.118073 Z M274.1332,25.6534896 C276.491048,25.6534896 278.402461,23.7392466 278.402461,21.377908 C278.402461,19.0165694 276.491048,17.1023264 274.1332,17.1023264 C271.775352,17.1023264 269.863939,19.0165694 269.863939,21.377908 C269.863939,23.7392466 271.775352,25.6534896 274.1332,25.6534896 Z M74.699837,331.892561 L98.2106813,331.892561 C99.3123065,331.892561 100.274786,331.298625 100.793515,330.447086 C100.273918,329.594493 99.3096963,329.021642 98.2106813,329.021642 L74.699837,329.021642 C73.5982119,329.021642 72.6357323,329.615578 72.1170032,330.467116 C72.6366006,331.31971 73.600822,331.892561 74.699837,331.892561 Z M60.2011423,334.763479 C62.1874093,334.763479 63.7975967,332.996118 63.7975967,330.815966 C63.7975967,328.635815 62.1874093,326.868453 60.2011423,326.868453 C58.2148754,326.868453 56.604688,328.635815 56.604688,330.815966 C56.604688,332.996118 58.2148754,334.763479 60.2011423,334.763479 Z M76.7448324,316.461372 C76.7448324,317.848742 77.8729235,318.973426 79.2638599,318.973426 L93.6466584,318.973426 C95.0378789,318.973426 96.1656859,317.858414 96.1656859,316.461372 C96.1656859,315.074003 95.0375948,313.949319 93.6466584,313.949319 L79.2638599,313.949319 C77.8726394,313.949319 76.7448324,315.064331 76.7448324,316.461372 Z M86.8149046,643.387244 C93.9654658,643.387244 99.7621403,637.281812 99.7621403,629.75038 C99.7621403,622.218947 93.9654658,616.113516 86.8149046,616.113516 C79.6643434,616.113516 73.8676689,622.218947 73.8676689,629.75038 C73.8676689,637.281812 79.6643434,643.387244 86.8149046,643.387244 Z M86.8149046,643.387244" id="Body"></path>
        </g>
        <g id="iPhone" transform="translate(144.000000, 500.000000)"></g>
    </g>
</svg>